<svg xmlns="http://www.w3.org/2000/svg" viewBox="0 0 32 32" fill="none">
  <rect width="32" height="32" rx="7" fill="#7c3aed"/>
  <g fill="#fff">
    <rect x="6" y="6" width="4" height="4" rx="1"/>
    <rect x="6" y="12" width="4" height="4" rx="1"/>
    <rect x="12" y="6" width="4" height="4" rx="1"/>
    <rect x="12" y="12" width="4" height="4" rx="1"/>
    <rect x="22" y="6" width="4" height="4" rx="1"/>
    <rect x="22" y="12" width="4" height="4" rx="1"/>
    <rect x="6" y="22" width="4" height="4" rx="1"/>
    <rect x="12" y="22" width="4" height="4" rx="1"/>
    <rect x="18" y="18" width="4" height="4" rx="1"/>
    <rect x="22" y="22" width="4" height="4" rx="1"/>
    <rect x="18" y="12" width="2" height="2" rx="0.5"/>
    <rect x="12" y="18" width="2" height="2" rx="0.5"/>
  </g>
</svg>
